<svg version="1" xmlns="http://www.w3.org/2000/svg" width="333.333" height="333.333" viewBox="0 0 250.000000 250.000000"><path d="M167.5 30.5c-10.2 2.5-20.6 8.5-27 15.6-13.9 15.4-20.4 37.1-13.3 44.6 4.2 4.5 11.4 1.9 12.4-4.4.3-2.1-.3-4.8-1.7-8-4.8-10.3-2.4-20 7.3-29.6 5.1-5 13.4-10.3 17.4-11 1-.2 2.8-.8 3.8-1.2 1.1-.5 5.3-.4 9.4.2 17 2.5 31.1 14.4 40.9 34.6 3.9 8 8.8 22.2 9.8 28.7.7 4.5 1 5.9 2 10.2.6 2.7.7 26.9.1 31.3-.3 1.6-.7 4.6-1.1 6.5-.3 1.9-.8 4.8-1.1 6.5-.3 1.6-1.2 5.5-2.2 8.5-.9 3-1.6 5.7-1.7 6-.8 4.1-6.1 15.3-10.7 22.6-4.9 7.7-17.8 17.4-25.2 19-5.4 1.2-11.5 2-13.2 1.8-11.3-1.5-12.7-1.9-18.3-4.9-14-7.6-22.4-22-23.8-40.5-.6-7.3-.8-7.9-2.6-6.1-1.9 1.9-2 22.9 0 29.3 4.5 15.2 13.9 23.9 30 27.5 3.6.9 24.9.8 28.6-.1 20.5-4.8 38.5-20.2 49.6-42.3 1.7-3.5 3.3-7.1 3.5-8 .1-1 .6-2.5.9-3.3 6.1-15.9 7-43.3 2.3-66.5-6.9-34-25.7-58.3-50.3-65.1-4.9-1.4-22.7-2.7-25.8-1.9z"/><path d="M11.1 35.4c-1.2 1.3-2.3 3-2.5 3.7-.1.8-.5 1.9-.9 2.6-1.3 2.1-.9 17.8.7 23.8C11.8 78.7 16 89.4 23 102.6c6.3 12 7.4 13.8 8.1 14.4.4.3.9 1.5 1.3 2.7.4 1.3 1.2 2.3 1.7 2.3s.9.4.9 1c0 .5 2.4 4.4 5.3 8.5 7.7 11.2 8.2 12.3 6.4 14.3-1.5 1.8-12.4 19.9-30.6 51-10.6 18-12.6 23.1-8.6 21.6 1.2-.5 40.7-58.6 44-64.8 1.6-3.1 2.8-2.8 6.4 1.7 7.4 9.2 13.1 15.5 24.1 26.5 9.6 9.6 15.1 14.4 28.5 25 3.6 2.8 12.6 9.2 15.8 11.1 2.6 1.6 4.2 2 4.9 1.3.7-.7-3.9-5.9-14.4-16.3-16.5-16.6-23.8-24.3-23.8-25.3 0-.4-.9-1.7-2.1-2.9-3.5-3.6-13.1-16.6-20.2-27-6.1-9-8.1-13.7-5.9-13.7.5 0 1.4-1.1 2-2.4 1.4-3.1 15.6-23.2 28.4-40.1 3.8-5.1 14.3-18.2 15.2-19 .6-.6 3.1-3.5 5.6-6.5 2.4-3 6.3-7.5 8.6-10C137.1 42.7 141 37.6 141 34.6c0-1.6-.5-1.8-3.7-1.3-11.4 1.9-31.1 23.4-61.6 67.4-3.1 4.5-5.7 8.5-5.7 8.8 0 .3-.5 1.1-1 1.8-.6.7-3.2 4.3-5.8 8.1-2.6 3.9-5.1 7-5.7 7-1.4.1-23.8-44.6-25.1-49.9-.1-.6-1.2-3.5-2.4-6.5s-2.1-5.5-2-5.5c.1 0-.1-.7-.4-1.5-.3-.8-1.7-5.6-3.1-10.5-3.5-12.2-5.6-17.9-6.9-18.7-2-1.4-4.2-.8-6.5 1.6zM165.4 56.8c-1.6.8-4 2.4-5.3 3.6-2.4 2.2-8.6 13.5-7.8 14.3.3.2-.1 1.9-.8 3.7-.7 1.7-1.6 4.9-1.9 7.2-.4 2.2-.8 4.9-1 6-1.8 9.3-2.5 48.1-1.2 62.4 1.2 12.8 2.3 20.7 4.2 29 .7 3.6 1.6 7.4 1.7 8.5.2 1.1.7 2.8 1 3.7.4 1 .9 2.5 1.2 3.4.9 2.8 3 .9 2.8-2.7-1.9-35.2-1.8-57.2.1-71.4.2-1.7.8-5.9 1.2-9.5.8-6.7 1-7.8 1.4-8.3.1-.1.3-1.3.5-2.7.5-4.1 1.7-10.5 2.1-11.1.2-.3.5-1.9.8-3.5.8-4.7 4.3-14.9 6.2-18.6 1-1.8 1.9-3.5 1.9-3.8.1-.3.7-1.8 1.3-3.3.7-1.6 1.2-3.7 1.2-4.7 0-3.6-4.8-4.7-9.6-2.2z"/></svg>